<svg width="130" height="28" viewBox="0 0 130 28" fill="none" xmlns="http://www.w3.org/2000/svg">
<path d="M24.76 25.44C25.8533 27.04 27.36 27.84 29.28 27.84V28H25.4C23.48 28 21.9733 27.2 20.88 25.6L12.08 12.36L10.8 13.8L16.84 22.92V28H16.68L8.76 16.08V24.4C8.76 25.8133 9.04 26.7467 9.6 27.2C10.1867 27.6267 11.0533 27.84 12.2 27.84H13.4V28H0.8V27.84H1.96C3.10667 27.84 3.97333 27.6267 4.56 27.2C5.14667 26.7467 5.44 25.8133 5.44 24.4V3.64C5.44 2.2 5.14667 1.26667 4.56 0.839999C3.97333 0.386665 3.10667 0.159998 1.96 0.159998H0.8V-1.90735e-06H13.4V0.159998H12.2C11.0533 0.159998 10.1867 0.386665 9.6 0.839999C9.04 1.26667 8.76 2.2 8.76 3.64V15.72L19.32 3.92C19.9867 3.17333 20.12 2.36 19.72 1.48C19.32 0.599998 18.6267 0.159998 17.64 0.159998H16.48V-1.90735e-06H26.84V0.159998C24.28 0.159998 21.4667 1.88 18.4 5.32L14.36 9.8L24.76 25.44ZM43.0875 28H30.4875V27.84H31.6475C32.7942 27.84 33.6608 27.6267 34.2475 27.2C34.8342 26.7467 35.1275 25.8133 35.1275 24.4V3.64C35.1275 2.2 34.8342 1.26667 34.2475 0.839999C33.6608 0.386665 32.7942 0.159998 31.6475 0.159998H30.4875V-1.90735e-06H43.0875V0.159998H41.8875C40.7408 0.159998 39.8742 0.386665 39.2875 0.839999C38.7275 1.26667 38.4475 2.2 38.4475 3.64V24.4C38.4475 25.8133 38.7275 26.7467 39.2875 27.2C39.8742 27.6267 40.7408 27.84 41.8875 27.84H43.0875V28ZM57.9063 -1.90735e-06C62.0396 -1.90735e-06 65.3729 1.34666 67.9063 4.04C70.4396 6.70667 71.7063 10.0267 71.7063 14C71.7063 17.9733 70.4396 21.3067 67.9063 24C65.3729 26.6667 62.0396 28 57.9063 28H44.7063V27.84H45.8663C47.0129 27.84 47.8796 27.6267 48.4663 27.2C49.0529 26.7467 49.3463 25.8133 49.3463 24.4V3.64C49.3463 2.2 49.0529 1.26667 48.4663 0.839999C47.8796 0.386665 47.0129 0.159998 45.8663 0.159998H44.7063V-1.90735e-06H57.9063ZM54.5463 27.84V0.159998H52.6663V27.84H54.5463ZM57.5063 27.84C59.2396 27.84 60.7729 27.44 62.1063 26.64C63.4396 25.84 64.5063 24.7733 65.3063 23.44C66.1063 22.1067 66.7063 20.64 67.1063 19.04C67.5063 17.44 67.7063 15.76 67.7063 14C67.7063 12.24 67.5063 10.56 67.1063 8.96C66.7063 7.36 66.1063 5.89333 65.3063 4.56C64.5063 3.22667 63.4263 2.16 62.0663 1.36C60.7329 0.559999 59.2129 0.159998 57.5063 0.159998H54.7063L57.5063 4.4V23.6L54.7063 27.84H57.5063ZM95.4381 22.36C95.7581 23.16 96.0248 23.8 96.2381 24.28C96.4781 24.7333 96.7981 25.28 97.1981 25.92C97.6248 26.56 98.1048 27.04 98.6381 27.36C99.1715 27.68 99.7715 27.84 100.438 27.84V28H70.8781V27.84C71.8381 27.84 72.7048 27.6533 73.4781 27.28C74.2781 26.88 74.9448 26.3333 75.4781 25.64C76.0381 24.92 76.4648 24.28 76.7581 23.72C77.0781 23.1333 77.3981 22.4667 77.7181 21.72L86.3581 -1.90735e-06H86.5181L95.4381 22.36ZM92.9581 27.12C93.3048 26.6133 93.3715 26.08 93.1581 25.52L84.7981 4.6L77.8781 21.96C77.3181 23.3467 77.4648 24.68 78.3181 25.96C79.1715 27.2133 80.3581 27.84 81.8781 27.84H91.5981C92.2115 27.84 92.6648 27.6 92.9581 27.12ZM105.33 2.56H105.49L119.01 22.92V28H118.85L106.93 10.08V20.92C106.93 21.56 106.943 22.0933 106.97 22.52C106.997 22.9467 107.09 23.5333 107.25 24.28C107.41 25.0267 107.637 25.6267 107.93 26.08C108.25 26.5333 108.717 26.9467 109.33 27.32C109.943 27.6667 110.69 27.84 111.57 27.84V28H102.05V27.84C102.93 27.84 103.677 27.6667 104.29 27.32C104.903 26.9467 105.357 26.5333 105.65 26.08C105.97 25.6267 106.21 25.0267 106.37 24.28C106.53 23.5333 106.623 22.9467 106.65 22.52C106.677 22.0933 106.69 21.56 106.69 20.92V9.72L105.33 7.68V2.56ZM119.93 -1.90735e-06H129.45V0.159998C128.57 0.159998 127.823 0.346665 127.21 0.719998C126.597 1.06667 126.13 1.46667 125.81 1.92C125.517 2.37333 125.29 2.97333 125.13 3.72C124.97 4.46666 124.877 5.05333 124.85 5.48C124.823 5.90667 124.81 6.44 124.81 7.08V22.24V28H124.65L106.97 1.4C106.41 0.573332 105.157 0.159998 103.21 0.159998H102.05V-1.90735e-06H110.01L124.57 21.88V7.08C124.57 6.44 124.557 5.90667 124.53 5.48C124.503 5.05333 124.41 4.46666 124.25 3.72C124.09 2.97333 123.85 2.37333 123.53 1.92C123.237 1.46667 122.783 1.06667 122.17 0.719998C121.557 0.346665 120.81 0.159998 119.93 0.159998V-1.90735e-06Z" fill="#212121"/>
</svg>
